<?xml version="1.0" encoding="us-ascii" standalone="no"?><svg xmlns="http://www.w3.org/2000/svg" xmlns:xlink="http://www.w3.org/1999/xlink" contentStyleType="text/css" height="454.1667px" preserveAspectRatio="none" style="width:1456px;height:454px;" version="1.1" viewBox="0 0 1456 454" width="1456.25px" zoomAndPan="magnify"><defs><linearGradient id="gwwxbj21kxf9j0" x1="50%" x2="50%" y1="0%" y2="100%"><stop offset="0%" stop-color="#7C9AB9"/><stop offset="100%" stop-color="#304D6D"/></linearGradient></defs><g><line style="stroke:#999999;stroke-width:1.0416666666666667;stroke-dasharray:5.0,5.0;" x1="38.5417" x2="38.5417" y1="98.9258" y2="357.0638"/><line style="stroke:#999999;stroke-width:1.0416666666666667;stroke-dasharray:5.0,5.0;" x1="177.0833" x2="177.0833" y1="98.9258" y2="357.0638"/><line style="stroke:#999999;stroke-width:1.0416666666666667;stroke-dasharray:5.0,5.0;" x1="433.3333" x2="433.3333" y1="98.9258" y2="357.0638"/><line style="stroke:#999999;stroke-width:1.0416666666666667;stroke-dasharray:5.0,5.0;" x1="704.1667" x2="704.1667" y1="98.9258" y2="357.0638"/><line style="stroke:#999999;stroke-width:1.0416666666666667;stroke-dasharray:5.0,5.0;" x1="1025" x2="1025" y1="98.9258" y2="357.0638"/><line style="stroke:#999999;stroke-width:1.0416666666666667;stroke-dasharray:5.0,5.0;" x1="1356.25" x2="1356.25" y1="98.9258" y2="357.0638"/><text fill="#FFFFFF" font-family="Verdana" font-size="12.5" lengthAdjust="spacing" textLength="30.2083" x="20.8333" y="90.7694">User</text><ellipse cx="39.0625" cy="19.7917" fill="url(#gwwxbj21kxf9j0)" rx="8.3333" ry="8.3333" style="stroke:#304D6D;stroke-width:1.0416666666666667;"/><path d="M39.0625,28.125 L39.0625,56.25 M25.5208,36.4583 L52.6042,36.4583 M39.0625,56.25 L25.5208,71.875 M39.0625,56.25 L52.6042,71.875 " fill="none" style="stroke:#304D6D;stroke-width:1.0416666666666667;"/><text fill="#FFFFFF" font-family="Verdana" font-size="12.5" lengthAdjust="spacing" textLength="30.2083" x="20.8333" y="372.8333">User</text><ellipse cx="39.0625" cy="390.3646" fill="url(#gwwxbj21kxf9j0)" rx="8.3333" ry="8.3333" style="stroke:#304D6D;stroke-width:1.0416666666666667;"/><path d="M39.0625,398.6979 L39.0625,426.8229 M25.5208,407.0313 L52.6042,407.0313 M39.0625,426.8229 L25.5208,442.4479 M39.0625,426.8229 L52.6042,442.4479 " fill="none" style="stroke:#304D6D;stroke-width:1.0416666666666667;"/><rect fill="url(#gwwxbj21kxf9j0)" height="39.5508" rx="4.1667" ry="4.1667" style="stroke:#304D6D;stroke-width:1.0416666666666667;" width="125" x="114.5833" y="58.3333"/><text fill="#FFFFFF" font-family="Verdana" font-size="12.5" lengthAdjust="spacing" textLength="100" x="127.0833" y="82.4361">UI Builder Node</text><rect fill="url(#gwwxbj21kxf9j0)" height="39.5508" rx="4.1667" ry="4.1667" style="stroke:#304D6D;stroke-width:1.0416666666666667;" width="125" x="114.5833" y="356.0221"/><text fill="#FFFFFF" font-family="Verdana" font-size="12.5" lengthAdjust="spacing" textLength="100" x="127.0833" y="380.1249">UI Builder Node</text><rect fill="url(#gwwxbj21kxf9j0)" height="39.5508" rx="4.1667" ry="4.1667" style="stroke:#304D6D;stroke-width:1.0416666666666667;" width="200" x="333.3333" y="58.3333"/><text fill="#FFFFFF" font-family="Verdana" font-size="12.5" lengthAdjust="spacing" textLength="175" x="345.8333" y="82.4361">Node-RED Workflow Engine</text><rect fill="url(#gwwxbj21kxf9j0)" height="39.5508" rx="4.1667" ry="4.1667" style="stroke:#304D6D;stroke-width:1.0416666666666667;" width="200" x="333.3333" y="356.0221"/><text fill="#FFFFFF" font-family="Verdana" font-size="12.5" lengthAdjust="spacing" textLength="175" x="345.8333" y="380.1249">Node-RED Workflow Engine</text><rect fill="url(#gwwxbj21kxf9j0)" height="39.5508" rx="4.1667" ry="4.1667" style="stroke:#304D6D;stroke-width:1.0416666666666667;" width="155.2083" x="627.0833" y="58.3333"/><text fill="#FFFFFF" font-family="Verdana" font-size="12.5" lengthAdjust="spacing" textLength="130.2083" x="639.5833" y="82.4361">OS-Level Operations</text><rect fill="url(#gwwxbj21kxf9j0)" height="39.5508" rx="4.1667" ry="4.1667" style="stroke:#304D6D;stroke-width:1.0416666666666667;" width="155.2083" x="627.0833" y="356.0221"/><text fill="#FFFFFF" font-family="Verdana" font-size="12.5" lengthAdjust="spacing" textLength="130.2083" x="639.5833" y="380.1249">OS-Level Operations</text><rect fill="url(#gwwxbj21kxf9j0)" height="39.5508" rx="4.1667" ry="4.1667" style="stroke:#304D6D;stroke-width:1.0416666666666667;" width="297.9167" x="876.0417" y="58.3333"/><text fill="#FFFFFF" font-family="Verdana" font-size="12.5" lengthAdjust="spacing" textLength="272.9167" x="888.5417" y="82.4361">Data Processing and Command Execution</text><rect fill="url(#gwwxbj21kxf9j0)" height="39.5508" rx="4.1667" ry="4.1667" style="stroke:#304D6D;stroke-width:1.0416666666666667;" width="297.9167" x="876.0417" y="356.0221"/><text fill="#FFFFFF" font-family="Verdana" font-size="12.5" lengthAdjust="spacing" textLength="272.9167" x="888.5417" y="380.1249">Data Processing and Command Execution</text><rect fill="url(#gwwxbj21kxf9j0)" height="39.5508" rx="4.1667" ry="4.1667" style="stroke:#304D6D;stroke-width:1.0416666666666667;" width="177.0833" x="1267.7083" y="58.3333"/><text fill="#FFFFFF" font-family="Verdana" font-size="12.5" lengthAdjust="spacing" textLength="152.0833" x="1280.2083" y="82.4361">Results Communication</text><rect fill="url(#gwwxbj21kxf9j0)" height="39.5508" rx="4.1667" ry="4.1667" style="stroke:#304D6D;stroke-width:1.0416666666666667;" width="177.0833" x="1267.7083" y="356.0221"/><text fill="#FFFFFF" font-family="Verdana" font-size="12.5" lengthAdjust="spacing" textLength="152.0833" x="1280.2083" y="380.1249">Results Communication</text><polygon fill="#446E9B" points="164.5833,136.3932,175,140.5599,164.5833,144.7266,168.75,140.5599" style="stroke:#446E9B;stroke-width:1.0416666666666667;"/><line style="stroke:#446E9B;stroke-width:3.125;" x1="39.0625" x2="170.8333" y1="140.5599" y2="140.5599"/><text fill="#FFFFFF" font-family="Verdana" font-size="12.5" lengthAdjust="spacing" textLength="97.9167" x="51.5625" y="130.3202">Interact with UI</text><polygon fill="#446E9B" points="420.8333,175.944,431.25,180.1107,420.8333,184.2773,425,180.1107" style="stroke:#446E9B;stroke-width:1.0416666666666667;"/><line style="stroke:#446E9B;stroke-width:3.125;" x1="177.0833" x2="427.0833" y1="180.1107" y2="180.1107"/><text fill="#FFFFFF" font-family="Verdana" font-size="12.5" lengthAdjust="spacing" textLength="67.7083" x="189.5833" y="169.871">User input</text><polygon fill="#446E9B" points="692.1875,215.4948,702.6042,219.6615,692.1875,223.8281,696.3542,219.6615" style="stroke:#446E9B;stroke-width:1.0416666666666667;"/><line style="stroke:#446E9B;stroke-width:3.125;" x1="433.3333" x2="698.4375" y1="219.6615" y2="219.6615"/><text fill="#FFFFFF" font-family="Verdana" font-size="12.5" lengthAdjust="spacing" textLength="193.75" x="445.8333" y="209.4218">Data reception and validation</text><polygon fill="#446E9B" points="1012.5,255.0456,1022.9167,259.2122,1012.5,263.3789,1016.6667,259.2122" style="stroke:#446E9B;stroke-width:1.0416666666666667;"/><line style="stroke:#446E9B;stroke-width:3.125;" x1="704.6875" x2="1018.75" y1="259.2122" y2="259.2122"/><text fill="#FFFFFF" font-family="Verdana" font-size="12.5" lengthAdjust="spacing" textLength="136.4583" x="717.1875" y="248.9726">Execute bash scripts</text><polygon fill="#446E9B" points="1343.75,294.5964,1354.1667,298.763,1343.75,302.9297,1347.9167,298.763" style="stroke:#446E9B;stroke-width:1.0416666666666667;"/><line style="stroke:#446E9B;stroke-width:3.125;" x1="1025" x2="1350" y1="298.763" y2="298.763"/><text fill="#FFFFFF" font-family="Verdana" font-size="12.5" lengthAdjust="spacing" textLength="212.5" x="1037.5" y="288.5234">Process and execute commands</text><polygon fill="#446E9B" points="50.5208,334.1471,40.1042,338.3138,50.5208,342.4805,46.3542,338.3138" style="stroke:#446E9B;stroke-width:1.0416666666666667;"/><line style="stroke:#446E9B;stroke-width:3.125;" x1="44.2708" x2="1355.2083" y1="338.3138" y2="338.3138"/><text fill="#FFFFFF" font-family="Verdana" font-size="12.5" lengthAdjust="spacing" textLength="117.7083" x="61.9792" y="328.0741">Send results back</text><!--SRC=[LOz1ReCm44NtFiKqUowGHHS1AY5L9GAXh0Sp3LQCRTacoV4xDgWIAqj_tepV_uWpBGJ1eIIDen0ee_Km1FB2eOzAAeScmcbeuB8gFP677plH2J30q5oEK9eKNLt1pVh7hxOlgCrTcOs-VTL7kksBRtgIXjQHnwYi2Hbi-_O8LXWHhjvA2a6PEw2PeBJBajxwJN9DktcrkfR7rOx2gcF8-6gKn7-qAuL8DQ7uJ4NW38s9x24Zl5ISEHCfvYcBypIpohWrYXHmpfwSPpbFabmwdTsUgDMKVnA9OPIz6DrS2KOCCmJfbOj1f14JNGBsZla8xR3SYWRHPIvhdA4dHlnURaJv47y0]--></g></svg>