<svg xmlns="http://www.w3.org/2000/svg" width="24" height="24" fill="none" viewBox="0 0 24 24"><path fill="#000" fill-rule="evenodd" d="M10 1C8.34315 1 7 2.34315 7 4V7H4C2.34315 7 1 8.34315 1 10V20C1 21.6569 2.34315 23 4 23H14C15.6569 23 17 21.6569 17 20V17H20C21.6569 17 23 15.6569 23 14V4C23 2.34315 21.6569 1 20 1H10ZM17 16H20C21.1046 16 22 15.1046 22 14V4C22 2.89543 21.1046 2 20 2H10C8.89543 2 8 2.89543 8 4V7H14C15.6569 7 17 8.34315 17 10V16ZM4 8C2.89543 8 2 8.89543 2 10V20C2 21.1046 2.89543 22 4 22H14C15.1046 22 16 21.1046 16 20V10C16 8.89543 15.1046 8 14 8H4Z" clip-rule="evenodd"/></svg>