<svg xmlns="http://www.w3.org/2000/svg" width="24" height="24" fill="none" viewBox="0 0 24 24"><path fill="#000" fill-rule="evenodd" d="M16.6857 1.03589C16.9421 1.13845 17.0668 1.42944 16.9642 1.68583L12.5385 12.7501L14.2479 17.0235C14.859 15.2635 16.5319 14.0001 18.5 14.0001C20.9853 14.0001 23 16.0149 23 18.5001C23 20.9854 20.9853 23.0001 18.5 23.0001C16.6466 23.0001 15.0549 21.8797 14.3653 20.2791C14.2141 19.928 14.0996 19.5624 13.9851 19.1967C13.8862 18.8807 13.7873 18.5647 13.6646 18.258L12 14.0964L10.3354 18.258C10.2127 18.5647 10.1138 18.8807 10.0149 19.1966C9.9004 19.5624 9.78593 19.928 9.63467 20.2791C8.9451 21.8797 7.3534 23.0001 5.5 23.0001C3.01472 23.0001 1 20.9854 1 18.5001C1 16.0149 3.01472 14.0001 5.5 14.0001C7.46805 14.0001 9.14103 15.2635 9.75213 17.0235L11.4615 12.7501L7.03576 1.68583C6.93321 1.42944 7.05791 1.13845 7.3143 1.03589C7.5707 0.933338 7.86168 1.05805 7.96424 1.31444L12 11.4038L16.0358 1.31444C16.1383 1.05805 16.4293 0.933338 16.6857 1.03589ZM9 18.5001C9 20.4331 7.433 22.0001 5.5 22.0001C3.567 22.0001 2 20.4331 2 18.5001C2 16.5671 3.567 15.0001 5.5 15.0001C7.433 15.0001 9 16.5671 9 18.5001ZM18.5 22.0001C20.433 22.0001 22 20.4331 22 18.5001C22 16.5671 20.433 15.0001 18.5 15.0001C16.567 15.0001 15 16.5671 15 18.5001C15 20.4331 16.567 22.0001 18.5 22.0001Z" clip-rule="evenodd"/></svg>