<svg xmlns="http://www.w3.org/2000/svg" width="24" height="24" fill="none" viewBox="0 0 24 24"><path fill="#000" fill-rule="evenodd" d="M8 5C8 3.34315 9.34315 2 11 2H13C14.6569 2 16 3.34315 16 5H21.5C21.7761 5 22 5.22386 22 5.5C22 5.77614 21.7761 6 21.5 6H19V20C19 21.6569 17.6569 23 16 23H8C6.34315 23 5 21.6569 5 20V6H2.5C2.22386 6 2 5.77614 2 5.5C2 5.22386 2.22386 5 2.5 5H8ZM6 6V20C6 21.1046 6.89543 22 8 22H16C17.1046 22 18 21.1046 18 20V6H6ZM14.7324 4C14.9026 4.29417 15 4.63571 15 5H9C9 4.63571 9.09739 4.29417 9.26756 4C9.61337 3.4022 10.2597 3 11 3H13C13.7403 3 14.3866 3.4022 14.7324 4ZM10.5 12C10.7761 12 11 12.2239 11 12.5V18.5C11 18.7761 10.7761 19 10.5 19C10.2239 19 10 18.7761 10 18.5V12.5C10 12.2239 10.2239 12 10.5 12ZM14 12.5C14 12.2239 13.7761 12 13.5 12C13.2239 12 13 12.2239 13 12.5V18.5C13 18.7761 13.2239 19 13.5 19C13.7761 19 14 18.7761 14 18.5V12.5Z" clip-rule="evenodd"/></svg>