<svg xmlns="http://www.w3.org/2000/svg" width="24" height="24" fill="none" viewBox="0 0 24 24"><path fill="#000" fill-rule="evenodd" d="M7.35355 13.1464L11.5 17.2929V1.5C11.5 1.22386 11.7239 1 12 1C12.2761 1 12.5 1.22386 12.5 1.5V17.2929L16.6464 13.1464C16.8417 12.9512 17.1583 12.9512 17.3536 13.1464C17.5488 13.3417 17.5488 13.6583 17.3536 13.8536L12.3536 18.8536C12.1583 19.0488 11.8417 19.0488 11.6464 18.8536L6.64645 13.8536C6.45118 13.6583 6.45118 13.3417 6.64645 13.1464C6.84171 12.9512 7.15829 12.9512 7.35355 13.1464ZM2 12.5C2 12.2239 1.77614 12 1.5 12C1.22386 12 1 12.2239 1 12.5V20C1 21.6569 2.34315 23 4 23H20C21.6569 23 23 21.6569 23 20V12.5C23 12.2239 22.7761 12 22.5 12C22.2239 12 22 12.2239 22 12.5V20C22 21.1046 21.1046 22 20 22H4C2.89543 22 2 21.1046 2 20V12.5Z" clip-rule="evenodd"/></svg>