<svg xmlns="http://www.w3.org/2000/svg" width="24" height="24" fill="none" viewBox="0 0 24 24"><path fill="#000" fill-rule="evenodd" d="M7 1.5C7 1.22386 6.77614 1 6.5 1C6.22386 1 6 1.22386 6 1.5V3H4C2.34315 3 1 4.34315 1 6V20C1 21.6569 2.34315 23 4 23H20C21.6569 23 23 21.6569 23 20V6C23 4.34315 21.6569 3 20 3H18V1.5C18 1.22386 17.7761 1 17.5 1C17.2239 1 17 1.22386 17 1.5V3H7V1.5ZM2 6C2 4.89543 2.89543 4 4 4H20C21.1046 4 22 4.89543 22 6V20C22 21.1046 21.1046 22 20 22H4C2.89543 22 2 21.1046 2 20V6ZM7 10.5C7 10.7761 6.77614 11 6.5 11C6.22386 11 6 10.7761 6 10.5C6 10.2239 6.22386 10 6.5 10C6.77614 10 7 10.2239 7 10.5ZM8 10.5C8 11.3284 7.32843 12 6.5 12C5.67157 12 5 11.3284 5 10.5C5 9.67157 5.67157 9 6.5 9C7.32843 9 8 9.67157 8 10.5ZM6.5 17C6.77614 17 7 16.7761 7 16.5C7 16.2239 6.77614 16 6.5 16C6.22386 16 6 16.2239 6 16.5C6 16.7761 6.22386 17 6.5 17ZM6.5 18C7.32843 18 8 17.3284 8 16.5C8 15.6716 7.32843 15 6.5 15C5.67157 15 5 15.6716 5 16.5C5 17.3284 5.67157 18 6.5 18ZM12.5 10.5C12.5 10.7761 12.2761 11 12 11C11.7239 11 11.5 10.7761 11.5 10.5C11.5 10.2239 11.7239 10 12 10C12.2761 10 12.5 10.2239 12.5 10.5ZM13.5 10.5C13.5 11.3284 12.8284 12 12 12C11.1716 12 10.5 11.3284 10.5 10.5C10.5 9.67157 11.1716 9 12 9C12.8284 9 13.5 9.67157 13.5 10.5ZM12 17C12.2761 17 12.5 16.7761 12.5 16.5C12.5 16.2239 12.2761 16 12 16C11.7239 16 11.5 16.2239 11.5 16.5C11.5 16.7761 11.7239 17 12 17ZM12 18C12.8284 18 13.5 17.3284 13.5 16.5C13.5 15.6716 12.8284 15 12 15C11.1716 15 10.5 15.6716 10.5 16.5C10.5 17.3284 11.1716 18 12 18ZM18 10.5C18 10.7761 17.7761 11 17.5 11C17.2239 11 17 10.7761 17 10.5C17 10.2239 17.2239 10 17.5 10C17.7761 10 18 10.2239 18 10.5ZM19 10.5C19 11.3284 18.3284 12 17.5 12C16.6716 12 16 11.3284 16 10.5C16 9.67157 16.6716 9 17.5 9C18.3284 9 19 9.67157 19 10.5Z" clip-rule="evenodd"/></svg>