<svg xmlns="http://www.w3.org/2000/svg" width="24" height="24" fill="none" viewBox="0 0 24 24"><path fill="#000" fill-rule="evenodd" d="M12 23C18.0751 23 23 18.0751 23 12C23 5.92487 18.0751 1 12 1C5.92487 1 1 5.92487 1 12C1 18.0751 5.92487 23 12 23ZM22 12C22 17.5228 17.5228 22 12 22C6.47715 22 2 17.5228 2 12C2 6.47715 6.47715 2 12 2C17.5228 2 22 6.47715 22 12ZM17.8536 8.85355C18.0488 8.65829 18.0488 8.34171 17.8536 8.14645C17.6583 7.95118 17.3417 7.95118 17.1464 8.14645L11 14.2929L7.85355 11.1464C7.65829 10.9512 7.34171 10.9512 7.14645 11.1464C6.95118 11.3417 6.95118 11.6583 7.14645 11.8536L10.6464 15.3536C10.7402 15.4473 10.8674 15.5 11 15.5C11.1326 15.5 11.2598 15.4473 11.3535 15.3536L17.8536 8.85355Z" clip-rule="evenodd"/></svg>