<svg xmlns="http://www.w3.org/2000/svg" width="24" height="24" fill="none" viewBox="0 0 24 24"><path fill="#000" fill-rule="evenodd" d="M13 4C13 2.89543 12.1046 2 11 2H4C2.89543 2 2 2.89543 2 4V20C2 21.1046 2.89543 22 4 22H11C12.1046 22 13 21.1046 13 20V15.5C13 15.2239 13.2239 15 13.5 15C13.7761 15 14 15.2239 14 15.5V20C14 21.6569 12.6569 23 11 23H4C2.34315 23 1 21.6569 1 20V4C1 2.34315 2.34315 1 4 1H11C12.6569 1 14 2.34315 14 4V8.5C14 8.77614 13.7761 9 13.5 9C13.2239 9 13 8.77614 13 8.5V4ZM22.8536 12.3536L17.8536 17.3535C17.6584 17.5488 17.3418 17.5488 17.1465 17.3536C16.9512 17.1583 16.9512 16.8417 17.1465 16.6464L21.2929 12.5H6.5C6.22386 12.5 6 12.2761 6 12C6 11.7239 6.22386 11.5 6.5 11.5H21.2929L17.1465 7.35355C16.9512 7.15829 16.9512 6.84171 17.1465 6.64644C17.3418 6.45118 17.6584 6.45119 17.8536 6.64645L22.8536 11.6464C23.0488 11.8417 23.0488 12.1583 22.8536 12.3536Z" clip-rule="evenodd"/></svg>