<svg xmlns="http://www.w3.org/2000/svg" width="24" height="24" fill="none" viewBox="0 0 24 24"><path fill="#000" fill-rule="evenodd" d="M23 5C23 7.20914 21.2091 9 19 9C17.6131 9 16.3911 8.29421 15.6736 7.22223L8.77424 10.6719C8.92046 11.0875 9 11.5344 9 12C9 12.4656 8.92046 12.9125 8.77424 13.3281L15.6736 16.7778C16.3911 15.7058 17.6132 15 19 15C21.2091 15 23 16.7909 23 19C23 21.2091 21.2091 23 19 23C16.7909 23 15 21.2091 15 19C15 18.5344 15.0795 18.0875 15.2258 17.6719L8.32642 14.2222C7.60885 15.2942 6.38685 16 5 16C2.79086 16 1 14.2091 1 12C1 9.79086 2.79086 8 5 8C6.38685 8 7.60885 8.70579 8.32642 9.77777L15.2258 6.3281C15.0795 5.91254 15 5.46556 15 5C15 2.79086 16.7909 1 19 1C21.2091 1 23 2.79086 23 5ZM19 8C20.6569 8 22 6.65685 22 5C22 3.34315 20.6569 2 19 2C17.3431 2 16 3.34315 16 5C16 6.65685 17.3431 8 19 8ZM19 22C20.6569 22 22 20.6569 22 19C22 17.3431 20.6569 16 19 16C17.3431 16 16 17.3431 16 19C16 20.6569 17.3431 22 19 22ZM8 12C8 13.6569 6.65685 15 5 15C3.34315 15 2 13.6569 2 12C2 10.3431 3.34315 9 5 9C6.65685 9 8 10.3431 8 12Z" clip-rule="evenodd"/></svg>