<svg xmlns="http://www.w3.org/2000/svg" width="24" height="24" fill="none" viewBox="0 0 24 24"><path fill="#000" fill-rule="evenodd" d="M2 5.38198L9.65833 1.55279C10.3854 1.18926 11.1871 1 12 1C12.8129 1 13.6146 1.18926 14.3416 1.55279L22 5.38197C22.6128 5.6884 23 6.3148 23 7C23 7.6852 22.6128 8.3116 22 8.61803L20.2361 9.49999L22 10.3819C22.6128 10.6884 23 11.3148 23 12C23 12.6852 22.6128 13.3116 22 13.618L19.6978 14.7691C19.8804 14.8351 20.0602 14.912 20.2361 15L22 15.8819C22.6128 16.1884 23 16.8148 23 17.5C23 18.1852 22.6128 18.8116 22 19.118L14.3416 22.9472C13.6146 23.3107 12.8129 23.5 12 23.5C11.1871 23.5 10.3854 23.3107 9.65834 22.9472L2 19.118C1.38711 18.8116 0.999969 18.1851 1 17.4999C1.00003 16.8147 1.38716 16.1884 2 15.8819L3.76387 15C3.93976 14.9121 4.11953 14.8351 4.30222 14.7691L2 13.618C1.38711 13.3116 0.999969 12.6851 1 11.9999C1.00003 11.3147 1.38716 10.6884 2 10.382L3.76387 9.50002L2 8.61805C1.38711 8.3116 0.999969 7.68516 1 6.99993C1.00003 6.31475 1.38716 5.6884 2 5.38198ZM13.8944 16.5527C13.3062 16.8468 12.6576 16.9999 12 16.9999C11.3423 16.9999 10.6938 16.8468 10.1056 16.5527C7.55278 15.2763 5 14 2.44721 12.7236C2.17312 12.5866 1.99999 12.3064 2 12C2.00001 11.6935 2.17314 11.4134 2.44721 11.2764L4.21109 10.3944C4.45761 10.2712 4.71368 10.1749 4.97513 10.1056L9.65834 12.4472C10.3854 12.8107 11.1871 13 12 13C12.8128 13 13.6146 12.8107 14.3416 12.4472L19.0248 10.1056C19.2863 10.1749 19.5423 10.2712 19.7888 10.3944L21.5528 11.2764C21.8268 11.4134 22 11.6936 22 12C22 12.3064 21.8268 12.5865 21.5528 12.7236C19 13.9999 16.4472 15.2763 13.8944 16.5527ZM5.72685 15.4815C5.20597 15.5171 4.69047 15.6547 4.21109 15.8944L2.44721 16.7764C2.17314 16.9134 2.00001 17.1935 2 17.4999C1.99999 17.8064 2.17312 18.0865 2.44721 18.2236L10.1056 22.0528C10.6938 22.3469 11.3423 22.5 12 22.5C12.6576 22.5 13.3062 22.3469 13.8944 22.0528L21.5528 18.2236C21.8268 18.0865 22 17.8064 22 17.5C22 17.1935 21.8268 16.9134 21.5528 16.7764L19.7888 15.8944C19.3095 15.6547 18.794 15.5171 18.2731 15.4814L14.3416 17.4472C13.6146 17.8107 12.8129 18 12 18C11.1871 18 10.3854 17.8107 9.65834 17.4472L5.72685 15.4815ZM21.5528 7.72361L13.8944 11.5527C13.3062 11.8468 12.6576 12 12 12C11.3423 12 10.6938 11.8469 10.1056 11.5528L2.44721 7.72362C2.17312 7.58657 1.99999 7.30642 2 6.99997C2.00001 6.69355 2.17314 6.41344 2.44721 6.2764L10.1055 2.44722C10.6938 2.15311 11.3424 2 12 2C12.6576 2 13.3062 2.15311 13.8944 2.44721L21.5528 6.27639C21.8268 6.41343 22 6.69357 22 7C22 7.30643 21.8268 7.58657 21.5528 7.72361Z" clip-rule="evenodd"/></svg>