<svg xmlns="http://www.w3.org/2000/svg" width="24" height="24" fill="none" viewBox="0 0 24 24"><path fill="#000" fill-rule="evenodd" d="M12 2C6.47715 2 2 6.47715 2 12C2 12.1598 2.00374 12.3187 2.01115 12.4766C2.02408 12.7524 1.81095 12.9865 1.53511 12.9995C1.25927 13.0124 1.02518 12.7993 1.01224 12.5234C1.00411 12.3499 1 12.1754 1 12C1 5.92487 5.92487 1 12 1C15.721 1 19.0098 2.8476 21.0001 5.67411L21 1.5C21 1.22386 21.2239 1 21.5 1C21.7761 1 22 1.22386 22 1.5V7.5C22 7.77614 21.7761 8 21.5 8H15.5C15.2239 8 15 7.77614 15 7.5C15 7.22386 15.2239 7 15.5 7L20.6623 7.00003C18.9328 4.01021 15.7007 2 12 2ZM22.4649 11.0006C22.7408 10.9876 22.9749 11.2008 22.9878 11.4766C22.9959 11.6501 23.0001 11.8246 23.0001 12C23.0001 18.0751 18.0752 23 12.0001 23C8.27906 23 4.99031 21.1524 3 18.3259V22.5C3 22.7762 2.77614 23 2.5 23C2.22386 23 2 22.7762 2 22.5V16.5C2 16.2239 2.22386 16 2.5 16H8.5C8.77614 16 9 16.2239 9 16.5C9 16.7762 8.77614 17 8.5 17H3.33776C5.06731 19.9898 8.29935 22 12.0001 22C17.5229 22 22.0001 17.5229 22.0001 12C22.0001 11.8402 21.9963 11.6813 21.9889 11.5234C21.976 11.2476 22.1891 11.0135 22.4649 11.0006Z" clip-rule="evenodd"/></svg>