<svg xmlns="http://www.w3.org/2000/svg" width="24" height="24" fill="none" viewBox="0 0 24 24"><path fill="#000" fill-rule="evenodd" d="M4.5 6C4.22386 6 4 6.22386 4 6.5C4 6.77614 4.22386 7 4.5 7H19.5C19.7761 7 20 6.77614 20 6.5C20 6.22386 19.7761 6 19.5 6H4.5ZM10 12C10 11.7239 10.2239 11.5 10.5 11.5H19.5C19.7761 11.5 20 11.7239 20 12C20 12.2761 19.7761 12.5 19.5 12.5H10.5C10.2239 12.5 10 12.2761 10 12ZM4 17.5C4 17.2239 4.22386 17 4.5 17H19.5C19.7761 17 20 17.2239 20 17.5C20 17.7761 19.7761 18 19.5 18H4.5C4.22386 18 4 17.7761 4 17.5Z" clip-rule="evenodd"/></svg>