<svg xmlns="http://www.w3.org/2000/svg" width="24" height="24" fill="none" viewBox="0 0 24 24"><path fill="#000" fill-rule="evenodd" d="M21.5 5.5H19.9585C19.7205 4.08114 18.4865 3 17 3C15.5135 3 14.2795 4.08114 14.0415 5.5H2.5C2.22386 5.5 2 5.72386 2 6C2 6.27614 2.22386 6.5 2.5 6.5H14.0415C14.2795 7.91886 15.5135 9 17 9C18.4865 9 19.7205 7.91886 19.9585 6.5H21.5C21.7761 6.5 22 6.27614 22 6C22 5.72386 21.7761 5.5 21.5 5.5ZM17 8C15.8954 8 15 7.10457 15 6C15 4.89543 15.8954 4 17 4C18.1046 4 19 4.89543 19 6C19 7.10457 18.1046 8 17 8ZM9.95852 11.5H21.5C21.7761 11.5 22 11.7239 22 12C22 12.2761 21.7761 12.5 21.5 12.5H9.95852C9.72048 13.9189 8.4865 15 7 15C5.5135 15 4.27952 13.9189 4.04148 12.5H2.5C2.22386 12.5 2 12.2761 2 12C2 11.7239 2.22386 11.5 2.5 11.5H4.04148C4.27952 10.0811 5.5135 9 7 9C8.4865 9 9.72048 10.0811 9.95852 11.5ZM5 12C5 13.1046 5.89543 14 7 14C8.10457 14 9 13.1046 9 12C9 10.8954 8.10457 10 7 10C5.89543 10 5 10.8954 5 12ZM19.9585 17.5H21.5C21.7761 17.5 22 17.7239 22 18C22 18.2761 21.7761 18.5 21.5 18.5H19.9585C19.7205 19.9189 18.4865 21 17 21C15.5135 21 14.2795 19.9189 14.0415 18.5H2.5C2.22386 18.5 2 18.2761 2 18C2 17.7239 2.22386 17.5 2.5 17.5H14.0415C14.2795 16.0811 15.5135 15 17 15C18.4865 15 19.7205 16.0811 19.9585 17.5ZM15 18C15 19.1046 15.8954 20 17 20C18.1046 20 19 19.1046 19 18C19 16.8954 18.1046 16 17 16C15.8954 16 15 16.8954 15 18Z" clip-rule="evenodd"/></svg>