<svg xmlns="http://www.w3.org/2000/svg" width="24" height="24" fill="none" viewBox="0 0 24 24"><path fill="#000" fill-rule="evenodd" d="M14.3404 1.05978C14.7363 1.20311 15 1.57903 15 2.00005V9.00005H20C20.388 9.00005 20.741 9.22451 20.9056 9.5759C21.0702 9.92728 21.0166 10.3422 20.7682 10.6402L10.7682 22.6402C10.4987 22.9637 10.0555 23.0836 9.65959 22.9403C9.26371 22.797 9.00001 22.4211 9.00001 22.0001V15.0001H4.00001C3.61199 15.0001 3.259 14.7756 3.09442 14.4242C2.92984 14.0728 2.98339 13.658 3.23179 13.3599L13.2318 1.35987C13.5013 1.03643 13.9446 0.916454 14.3404 1.05978ZM10 14.0001V22.0001L20 10.0001H14V2.00005L4.00001 14.0001H10Z" clip-rule="evenodd"/></svg>