<svg xmlns="http://www.w3.org/2000/svg" width="24" height="24" fill="none" viewBox="0 0 24 24"><path fill="#000" fill-rule="evenodd" d="M12 23C18.0751 23 23 18.0751 23 12C23 5.92487 18.0751 1 12 1C5.92487 1 1 5.92487 1 12C1 18.0751 5.92487 23 12 23ZM22 12C22 17.5228 17.5228 22 12 22C6.47715 22 2 17.5228 2 12C2 6.47715 6.47715 2 12 2C17.5228 2 22 6.47715 22 12ZM7.14645 16.8536C6.95118 16.6583 6.95118 16.3417 7.14645 16.1464L11.2929 12L7.14645 7.85355C6.95118 7.65829 6.95118 7.34171 7.14645 7.14645C7.34171 6.95118 7.65829 6.95118 7.85355 7.14645L12 11.2929L16.1464 7.14645C16.3417 6.95118 16.6583 6.95118 16.8536 7.14645C17.0488 7.34171 17.0488 7.65829 16.8536 7.85355L12.7071 12L16.8536 16.1464C17.0488 16.3417 17.0488 16.6583 16.8536 16.8536C16.6583 17.0488 16.3417 17.0488 16.1464 16.8536L12 12.7071L7.85355 16.8536C7.65829 17.0488 7.34171 17.0488 7.14645 16.8536Z" clip-rule="evenodd"/></svg>