<svg width="11" height="11" viewBox="0 0 11 11" fill="none" xmlns="http://www.w3.org/2000/svg">
<g clip-path="url(#clip0_80_2651)">
<path d="M5.5 11C4.73917 11 4.02417 10.8555 3.355 10.5666C2.68583 10.2777 2.10375 9.88588 1.60875 9.39125C1.11375 8.89662 0.721967 8.31453 0.4334 7.645C0.144833 6.97547 0.000366667 6.26047 0 5.5C0 4.47333 0.25905 3.52678 0.77715 2.66035C1.29525 1.79392 1.9987 1.12255 2.8875 0.646252C3.025 0.572918 3.16947 0.563752 3.3209 0.618752C3.47233 0.673752 3.57995 0.774585 3.64375 0.921252C3.69875 1.05875 3.69875 1.19864 3.64375 1.3409C3.58875 1.48317 3.49708 1.59078 3.36875 1.66375C2.68125 2.04875 2.13125 2.5828 1.71875 3.2659C1.30625 3.949 1.1 4.6937 1.1 5.5C1.1 6.72833 1.52625 7.76875 2.37875 8.62125C3.23125 9.47375 4.27167 9.9 5.5 9.9C6.72833 9.9 7.76875 9.47375 8.62125 8.62125C9.47375 7.76875 9.9 6.72833 9.9 5.5C9.9 4.69333 9.69375 3.94863 9.28125 3.2659C8.86875 2.58317 8.31875 2.04912 7.63125 1.66375C7.50292 1.59042 7.41125 1.4828 7.35625 1.3409C7.30125 1.199 7.30125 1.05912 7.35625 0.921252C7.41125 0.774585 7.50988 0.669168 7.65215 0.605002C7.79442 0.540835 7.92953 0.545418 8.0575 0.618752C8.95583 1.08625 9.67083 1.75542 10.2025 2.62625C10.7342 3.49708 11 4.455 11 5.5C11 6.26083 10.8555 6.97583 10.5666 7.645C10.2777 8.31417 9.88588 8.89625 9.39125 9.39125C8.89662 9.88625 8.31453 10.2782 7.645 10.5671C6.97547 10.8561 6.26047 11.0004 5.5 11ZM4.95 5.59625V0.550002C4.95 0.394168 5.0028 0.263635 5.1084 0.158402C5.214 0.0531686 5.34453 0.000368563 5.5 1.89655e-06C5.65547 -0.00036477 5.78618 0.0524353 5.89215 0.158402C5.99812 0.264369 6.05073 0.394902 6.05 0.550002V5.59625L7.095 4.565C7.19583 4.46417 7.32197 4.41137 7.4734 4.4066C7.62483 4.40183 7.75537 4.45463 7.865 4.565C7.96583 4.66583 8.01625 4.79417 8.01625 4.95C8.01625 5.10583 7.96583 5.23417 7.865 5.335L5.885 7.315C5.775 7.425 5.64667 7.48 5.5 7.48C5.35333 7.48 5.225 7.425 5.115 7.315L3.135 5.335C3.03417 5.23417 2.98137 5.10822 2.9766 4.95715C2.97183 4.80608 3.02463 4.67537 3.135 4.565C3.23583 4.46417 3.36417 4.41375 3.52 4.41375C3.67583 4.41375 3.80417 4.46417 3.905 4.565L4.95 5.59625Z" fill="#383874"/>
</g>
<defs>
<clipPath id="clip0_80_2651">
<rect width="11" height="11" fill="white"/>
</clipPath>
</defs>
</svg>
