<svg width="11" height="11" viewBox="0 0 11 11" fill="none" xmlns="http://www.w3.org/2000/svg">
<path fill-rule="evenodd" clip-rule="evenodd" d="M5.71511 0.01125C6.91511 0.08625 8.0401 0.68625 8.8651 1.51125C9.8401 2.56125 10.3651 3.83625 10.3651 5.33625C10.3651 6.53625 9.9151 7.66125 9.1651 8.63625C8.4151 9.53625 7.3651 10.2112 6.1651 10.4362C4.9651 10.6612 3.7651 10.5112 2.7151 9.91125C1.6651 9.31125 0.840104 8.41125 0.390104 7.28625C-0.0598957 6.16125 -0.134896 4.88625 0.240104 3.76125C0.615104 2.56125 1.2901 1.58625 2.3401 0.91125C3.3151 0.23625 4.51511 -0.06375 5.71511 0.01125ZM6.0901 9.68625C7.0651 9.46125 7.9651 8.93625 8.6401 8.11125C9.2401 7.28625 9.6151 6.31125 9.5401 5.26125C9.5401 4.06125 9.0901 2.86125 8.2651 2.03625C7.5151 1.28625 6.6151 0.83625 5.5651 0.76125C4.5901 0.68625 3.5401 0.91125 2.7151 1.51125C1.8901 2.11125 1.2901 2.93625 0.990104 3.98625C0.690104 4.96125 0.690104 6.01125 1.1401 6.98625C1.5901 7.96125 2.2651 8.71125 3.1651 9.23625C4.0651 9.76125 5.1151 9.91125 6.0901 9.68625ZM5.1901 4.88625L6.9901 3.01125L7.5151 3.53625L5.71511 5.41125L7.5151 7.28625L6.9901 7.81125L5.1901 5.93625L3.3901 7.81125L2.8651 7.28625L4.6651 5.41125L2.8651 3.53625L3.3901 3.01125L5.1901 4.88625Z" fill="#641514"/>
</svg>
