<svg width="14" height="14" viewBox="0 0 14 14" fill="none" xmlns="http://www.w3.org/2000/svg">
<path d="M7.00017 1.95982C4.13936 1.95982 1.82017 4.27901 1.82017 7.13982C1.82017 10.0007 4.13936 12.3198 7.00017 12.3198C9.86101 12.3198 12.1802 10.0007 12.1802 7.13982C12.1802 4.27901 9.86101 1.95982 7.00017 1.95982Z" stroke="#144B64" stroke-linecap="round" stroke-linejoin="round"/>
<path d="M6.47879 9.43622C6.48176 9.30056 6.5381 9.17153 6.63559 9.07716C6.73314 8.98279 6.86396 8.93073 6.99965 8.93224C7.09854 8.93554 7.19425 8.96786 7.27489 9.02521C7.35558 9.08255 7.41752 9.16239 7.45308 9.25473C7.4887 9.34706 7.49631 9.44783 7.47498 9.54447C7.4537 9.6411 7.40442 9.7293 7.3333 9.79812C7.26218 9.86693 7.17241 9.91329 7.07514 9.93141C6.97786 9.94954 6.87734 9.93863 6.78623 9.90004C6.69512 9.86145 6.61739 9.79689 6.56274 9.71441C6.50802 9.63193 6.47885 9.53517 6.47879 9.43622ZM7.39719 4.74339L7.39719 7.75619C7.3987 7.80911 7.38952 7.86181 7.37014 7.91103C7.35077 7.96026 7.32165 8.00506 7.28446 8.04269C7.24734 8.08038 7.20293 8.11017 7.15398 8.13022C7.10504 8.15027 7.05251 8.16023 6.99965 8.15945C6.94746 8.1595 6.89577 8.14898 6.84778 8.12848C6.79978 8.10804 6.75638 8.07808 6.72026 8.04039C6.68414 8.0027 6.65609 7.95813 6.63766 7.9093C6.61924 7.86046 6.61095 7.80839 6.61325 7.75619L6.61325 4.74339C6.61325 4.69193 6.62338 4.64097 6.64304 4.59342C6.66275 4.54588 6.69165 4.50265 6.72805 4.46625C6.76445 4.42985 6.80762 4.40101 6.85517 4.3813C6.90277 4.36158 6.95373 4.35145 7.00519 4.35145C7.05666 4.35145 7.10767 4.36158 7.15522 4.3813C7.20276 4.40101 7.24599 4.42985 7.28239 4.46625C7.31879 4.50265 7.34769 4.54588 7.36734 4.59342C7.38706 4.64097 7.39719 4.69193 7.39719 4.74339Z" fill="#144B64"/>
</svg>
