<svg width="11" height="11" viewBox="0 0 11 11" fill="none" xmlns="http://www.w3.org/2000/svg">
<g clip-path="url(#clip0_80_2642)">
<mask id="mask0_80_2642" style="mask-type:luminance" maskUnits="userSpaceOnUse" x="0" y="0" width="11" height="11">
<path d="M11 0H0V11H11V0Z" fill="white"/>
</mask>
<g mask="url(#mask0_80_2642)">
<path d="M2.38462 2.38462L8.61538 8.61538M10 5.5C10 6.69347 9.52589 7.83807 8.68198 8.68198C7.83807 9.52589 6.69347 10 5.5 10C4.30653 10 3.16193 9.52589 2.31802 8.68198C1.47411 7.83807 1 6.69347 1 5.5C1 4.30653 1.47411 3.16193 2.31802 2.31802C3.16193 1.47411 4.30653 1 5.5 1C6.69347 1 7.83807 1.47411 8.68198 2.31802C9.52589 3.16193 10 4.30653 10 5.5Z" stroke="#383874" stroke-linejoin="round"/>
</g>
</g>
<defs>
<clipPath id="clip0_80_2642">
<rect width="11" height="11" fill="white"/>
</clipPath>
</defs>
</svg>
