<svg width="13" height="13" viewBox="0 0 13 13" fill="none" xmlns="http://www.w3.org/2000/svg">
<path fill-rule="evenodd" clip-rule="evenodd" d="M0 0.764706C0 0.342374 0.323353 0 0.722222 0H6.5H12.2778C12.6767 0 13 0.342374 13 0.764706V2.29412C13 2.71645 12.6767 3.05882 12.2778 3.05882C11.8789 3.05882 11.5556 2.71645 11.5556 2.29412V1.52941H7.22222V11.4706H8.66667C9.06555 11.4706 9.38889 11.8129 9.38889 12.2353C9.38889 12.6576 9.06555 13 8.66667 13H6.5H4.33333C3.93446 13 3.61111 12.6576 3.61111 12.2353C3.61111 11.8129 3.93446 11.4706 4.33333 11.4706H5.77778V1.52941H1.44444V2.29412C1.44444 2.71645 1.12109 3.05882 0.722222 3.05882C0.323353 3.05882 0 2.71645 0 2.29412V0.764706Z" fill="white"/>
</svg>
