<svg width="15" height="15" viewBox="0 0 15 15" fill="none" xmlns="http://www.w3.org/2000/svg">
<path fill-rule="evenodd" clip-rule="evenodd" d="M3.9492 6.57228L6.57231 3.94914C6.85173 4.08837 7.16682 4.16668 7.50021 4.16668C7.83353 4.16668 8.14856 4.0884 8.42793 3.94923L11.0508 6.57203C10.9115 6.85148 10.8332 7.16663 10.8332 7.50007C10.8332 7.83347 10.9115 8.14858 11.0507 8.42801L8.42797 11.0508C8.14858 10.9116 7.83354 10.8333 7.50021 10.8333C7.1668 10.8333 6.85169 10.9116 6.57226 11.0509L3.94921 8.42784C4.08839 8.14845 4.16668 7.8334 4.16668 7.50007C4.16668 7.16673 4.08839 6.85167 3.9492 6.57228ZM11.9178 5.67127L9.32886 3.08232C9.49123 2.78573 9.58355 2.44531 9.58355 2.08334C9.58355 0.932745 8.6508 0 7.50021 0C6.34962 0 5.41687 0.932745 5.41687 2.08334C5.41687 2.44526 5.50916 2.78563 5.67149 3.08219L3.0823 5.6714C2.78571 5.50904 2.44531 5.41673 2.08334 5.41673C0.932743 5.41673 0 6.34947 0 7.50007C0 8.65067 0.932743 9.58341 2.08334 9.58341C2.44531 9.58341 2.78573 9.49109 3.08232 9.32872L5.67146 11.9178C5.50915 12.2144 5.41687 12.5548 5.41687 12.9167C5.41687 14.0673 6.34961 15 7.50021 15C8.65081 15 9.58355 14.0673 9.58355 12.9167C9.58355 12.5547 9.49123 12.2143 9.32885 11.9177L11.9177 9.32881C12.2143 9.49113 12.5546 9.58341 12.9165 9.58341C14.0671 9.58341 14.9999 8.65066 14.9999 7.50007C14.9999 6.34948 14.0671 5.41673 12.9165 5.41673C12.5547 5.41673 12.2143 5.50899 11.9178 5.67127ZM6.66687 2.08334C6.66687 1.6231 7.03996 1.25 7.50021 1.25C7.96046 1.25 8.33354 1.6231 8.33354 2.08334C8.33354 2.54357 7.96046 2.91668 7.50021 2.91668C7.03996 2.91668 6.66687 2.54357 6.66687 2.08334ZM12.0832 7.50007C12.0832 7.03982 12.4563 6.66673 12.9165 6.66673C13.3768 6.66673 13.7499 7.03982 13.7499 7.50007C13.7499 7.96032 13.3768 8.33341 12.9165 8.33341C12.4563 8.33341 12.0832 7.96032 12.0832 7.50007Z" fill="#838A98"/>
</svg>
