<svg width="18" height="18" viewBox="0 0 18 18" fill="none" xmlns="http://www.w3.org/2000/svg">
<path d="M8.875 14.7083V13.0417M8.875 14.7083C6.57382 14.7083 4.70833 12.8428 4.70833 10.5417M8.875 14.7083C10.4544 14.7083 11.8286 13.8296 12.5352 12.5343M4.70833 10.5417V8.04167C4.70833 7.12119 5.45452 6.375 6.375 6.375M4.70833 10.5417H2.20833M13.0417 8.37367V8.04167C13.0417 7.12119 12.2955 6.375 11.375 6.375H11.0398M2.625 15.9583L5.54167 13.0417M4.70833 7.20833L2.625 5.125M15.2064 10.5417C15.3373 10.5417 15.5417 10.5417 15.5417 10.5417M1.375 1.375L16.375 16.375M13.0417 7.20833L15.125 5.125M7.26708 2.60138C7.46025 1.89455 8.10692 1.375 8.875 1.375C9.7955 1.375 10.5417 2.12119 10.5417 3.04167V3.875H7.26708V2.60138Z" stroke="#838A98" stroke-width="1.5" stroke-linecap="round" stroke-linejoin="round"/>
</svg>
