<svg width="15" height="17" viewBox="0 0 15 17" fill="none" xmlns="http://www.w3.org/2000/svg">
<path d="M7.09312 8.59285V8.00376C7.09312 7.41467 7.09312 7.12013 7.63653 6.82558C8.18062 6.53104 8.72403 6.23649 8.72403 5.35285C8.72403 4.76308 8.18062 3.88013 7.09312 3.88013C6.00562 3.88013 5.46289 4.62467 5.46289 5.6474" stroke="#838A98" stroke-width="1.5"/>
<path d="M7.09473 9.18188V10.3601V9.18188Z" fill="#838A98"/>
<path d="M7.09473 9.18188V10.3601" stroke="#838A98" stroke-width="2"/>
<path d="M2.70455 12.5909C2.25247 12.5909 1.81891 12.7705 1.49925 13.0902C1.17959 13.4098 1 13.8434 1 14.2955M1 14.2955C1 14.7475 1.17959 15.1811 1.49925 15.5008C1.81891 15.8204 2.25247 16 2.70455 16H13.9545M1 14.2955V2.70455C1 2.25247 1.17959 1.81891 1.49925 1.49925C1.81891 1.17959 2.25247 1 2.70455 1H13.2727V12.5957H2.69909M12.9318 12.5909C12.4797 12.5909 12.0462 12.7705 11.7265 13.0902C11.4069 13.4098 11.2273 13.8434 11.2273 14.2955C11.2273 14.7475 11.4069 15.1811 11.7265 15.5008C12.0462 15.8204 12.4797 16 12.9318 16" stroke="#838A98" stroke-width="1.5"/>
</svg>
