<svg width="49" height="50" viewBox="0 0 49 50" fill="none" xmlns="http://www.w3.org/2000/svg">
<path d="M25.2173 7.88376V43.7746C25.2115 44.893 24.7646 45.964 23.9738 46.7548C23.1829 47.5457 22.112 47.9925 20.9936 47.9983C19.8769 47.9868 18.8093 47.5381 18.0196 46.7485C17.23 45.9589 16.7813 44.8912 16.7698 43.7746C16.4168 43.8093 16.0613 43.8093 15.7083 43.7746C13.7512 43.7688 11.876 42.9887 10.4921 41.6048C9.10818 40.2209 8.32813 38.3457 8.3223 36.3886C8.32393 35.8676 8.38326 35.3485 8.49921 34.8406C6.77278 34.2677 5.24744 33.2106 4.10491 31.7952C2.96239 30.3799 2.25086 28.6658 2.0551 26.8574C1.85935 25.049 2.18762 23.2224 3.0008 21.5953C3.81398 19.9682 5.07779 18.6092 6.64164 17.6802C6.36442 16.9068 6.22229 16.0914 6.22148 15.2698C6.22431 13.4968 6.86479 11.784 8.02596 10.4442C9.18713 9.10443 10.7915 8.22701 12.5461 7.97221C12.6415 6.35661 13.3506 4.83853 14.5283 3.7284C15.706 2.61828 17.2633 2 18.8817 2C20.5001 2 22.0574 2.61828 23.2351 3.7284C24.4127 4.83853 25.1218 6.35661 25.2173 7.97221V7.88376Z" stroke="#838A98" stroke-width="3" stroke-miterlimit="10"/>
<path d="M13.6075 22.8977C11.7156 22.7942 9.93527 21.9698 8.6326 20.5939C7.32992 19.218 6.60394 17.3953 6.60394 15.5006C6.60394 13.6059 7.32992 11.7832 8.6326 10.4073C9.93527 9.03144 11.7156 8.207 13.6075 8.10352" stroke="#838A98" stroke-width="3" stroke-miterlimit="10"/>
<path d="M16.7698 29.2222C17.8791 29.2222 18.9776 29.4407 20.0025 29.8652C21.0274 30.2897 21.9587 30.912 22.7431 31.6964C23.5275 32.4808 24.1497 33.4121 24.5743 34.437C24.9988 35.4618 25.2173 36.5603 25.2173 37.6697" stroke="#838A98" stroke-width="3" stroke-miterlimit="10"/>
<path d="M18.8927 14.4502C19.7251 14.4502 20.5494 14.2859 21.3181 13.9667C22.0869 13.6474 22.7851 13.1796 23.3727 12.59C23.9603 12.0003 24.4257 11.3005 24.7422 10.5306C25.0587 9.76073 25.2202 8.93593 25.2173 8.10352" stroke="#838A98" stroke-width="3" stroke-miterlimit="10"/>
<path d="M26.1018 24.9985L39.0753 24.9985" stroke="#838A98" stroke-width="3"/>
<path d="M31.8679 37.9131C31.0394 37.9131 30.3679 38.5847 30.3679 39.4131C30.3679 40.2415 31.0394 40.9131 31.8679 40.9131L31.8679 37.9131ZM31.8679 40.9131L39.0753 40.9131L39.0753 37.9131L31.8679 37.9131L31.8679 40.9131Z" fill="#838A98"/>
<path d="M31.8679 9.0835C31.0394 9.0835 30.3679 9.75507 30.3679 10.5835C30.3679 11.4119 31.0394 12.0835 31.8679 12.0835L31.8679 9.0835ZM31.8679 12.0835L39.0753 12.0835L39.0753 9.0835L31.8679 9.0835L31.8679 12.0835Z" fill="#838A98"/>
<path d="M33.3679 10.5835C33.3679 9.75507 32.6963 9.0835 31.8679 9.0835C31.0394 9.0835 30.3679 9.75507 30.3679 10.5835L33.3679 10.5835ZM30.3679 10.5835L30.3679 39.4134L33.3679 39.4134L33.3679 10.5835L30.3679 10.5835Z" fill="#838A98"/>
<circle cx="43.3998" cy="10.5833" r="3.54523" stroke="#838A98" stroke-width="3"/>
<circle cx="43.3998" cy="24.9984" r="3.54523" stroke="#838A98" stroke-width="3"/>
<circle cx="43.3998" cy="39.4134" r="3.54523" stroke="#838A98" stroke-width="3"/>
</svg>
