<svg width="60" height="60" viewBox="0 0 60 60" fill="none" xmlns="http://www.w3.org/2000/svg">
<g clip-path="url(#clip0_60_378)">
<path d="M11 45.7786C14.2791 49.4568 18.6261 52.0689 23.4613 53.2665C28.2964 54.4641 33.3898 54.1902 38.0618 52.4815C42.7338 50.7728 46.7624 47.7104 49.6101 43.7029C52.4578 39.6954 53.9892 34.9333 53.9999 30.0519C54.0107 25.1706 52.5004 20.4021 49.6705 16.3825C46.8406 12.363 42.8256 9.28357 38.1611 7.55506C33.4967 5.82655 28.4046 5.53115 23.5642 6.70827C18.7238 7.88539 14.3652 10.4791 11.0699 14.1433" stroke="#838A98" stroke-width="3" stroke-linecap="round" stroke-linejoin="round"/>
<path d="M6 28.5C5.17157 28.5 4.5 29.1716 4.5 30C4.5 30.8284 5.17157 31.5 6 31.5L6 28.5ZM41.0607 31.0607C41.6464 30.4749 41.6464 29.5251 41.0607 28.9393L31.5147 19.3934C30.9289 18.8076 29.9792 18.8076 29.3934 19.3934C28.8076 19.9792 28.8076 20.9289 29.3934 21.5147L37.8787 30L29.3934 38.4853C28.8076 39.0711 28.8076 40.0208 29.3934 40.6066C29.9792 41.1924 30.9289 41.1924 31.5147 40.6066L41.0607 31.0607ZM6 31.5L40 31.5L40 28.5L6 28.5L6 31.5Z" fill="#838A98"/>
</g>
<defs>
<clipPath id="clip0_60_378">
<rect width="60" height="60" fill="white"/>
</clipPath>
</defs>
</svg>
