<svg width="63" height="63" viewBox="0 0 63 63" fill="none" xmlns="http://www.w3.org/2000/svg">
<path d="M55.774 25.352C52.6538 25.7421 49.7286 24.377 47.9735 21.4517C46.4134 18.7215 46.6084 15.2113 48.5585 12.8711C45.6333 10.1409 42.1231 8.19078 38.4178 7.0207C37.2477 9.7509 34.5175 11.701 31.2023 11.701C27.887 11.701 25.1568 9.7509 23.9867 6.82568C20.0864 7.99577 16.5762 9.94591 13.846 12.6761C15.6011 15.2113 15.9911 18.7215 14.236 21.4517C12.6759 24.1819 9.55568 25.7421 6.43545 25.352C6.04542 27.3022 5.6554 29.2523 5.6554 31.2025C5.6554 33.1526 5.85041 35.2978 6.43545 37.0529C9.55568 36.6629 12.4809 38.028 14.236 40.9532C15.7961 43.6834 15.6011 47.1936 13.651 49.5338C16.5762 52.264 20.0864 54.2141 23.7917 55.3842C24.9618 52.654 27.692 50.5089 31.0072 50.5089C34.3225 50.5089 37.0527 52.459 38.2228 55.3842C42.1231 54.2141 45.6333 52.264 48.3635 49.5338C46.6084 47.1936 46.2183 43.6834 47.7785 40.9532C49.3386 38.223 52.4588 36.6629 55.579 37.0529C55.9691 35.1027 56.3591 33.1526 56.3591 31.2025C56.5541 29.2523 56.3591 27.1072 55.774 25.352Z" stroke="#838A98" stroke-width="3" stroke-miterlimit="10" stroke-linecap="round" stroke-linejoin="round"/>
<path d="M21.4516 25.3521L15.6011 31.2025L21.4516 37.0529" stroke="#838A98" stroke-width="3" stroke-miterlimit="10" stroke-linecap="round" stroke-linejoin="round"/>
<path d="M40.953 25.3521L46.8034 31.2025L40.953 37.0529" stroke="#838A98" stroke-width="3" stroke-miterlimit="10" stroke-linecap="round" stroke-linejoin="round"/>
<path d="M35.1026 23.4019L27.302 39.003" stroke="#838A98" stroke-width="3" stroke-miterlimit="10" stroke-linecap="round" stroke-linejoin="round"/>
</svg>
