<svg width="51" height="51" viewBox="0 0 51 51" fill="none" xmlns="http://www.w3.org/2000/svg">
<path d="M19.125 27.625C20.2986 27.625 21.25 26.6736 21.25 25.5C21.25 24.3264 20.2986 23.375 19.125 23.375C17.9514 23.375 17 24.3264 17 25.5C17 26.6736 17.9514 27.625 19.125 27.625Z" fill="#838A98" stroke="#838A98" stroke-width="3" stroke-linecap="round" stroke-linejoin="round"/>
<path d="M19.125 12.75C20.2986 12.75 21.25 11.7986 21.25 10.625C21.25 9.45139 20.2986 8.5 19.125 8.5C17.9514 8.5 17 9.45139 17 10.625C17 11.7986 17.9514 12.75 19.125 12.75Z" fill="#838A98" stroke="#838A98" stroke-width="3" stroke-linecap="round" stroke-linejoin="round"/>
<path d="M19.125 42.5C20.2986 42.5 21.25 41.5486 21.25 40.375C21.25 39.2014 20.2986 38.25 19.125 38.25C17.9514 38.25 17 39.2014 17 40.375C17 41.5486 17.9514 42.5 19.125 42.5Z" fill="#838A98" stroke="#838A98" stroke-width="3" stroke-linecap="round" stroke-linejoin="round"/>
<path d="M31.875 27.625C33.0486 27.625 34 26.6736 34 25.5C34 24.3264 33.0486 23.375 31.875 23.375C30.7014 23.375 29.75 24.3264 29.75 25.5C29.75 26.6736 30.7014 27.625 31.875 27.625Z" fill="#838A98" stroke="#838A98" stroke-width="3" stroke-linecap="round" stroke-linejoin="round"/>
<path d="M31.875 12.75C33.0486 12.75 34 11.7986 34 10.625C34 9.45139 33.0486 8.5 31.875 8.5C30.7014 8.5 29.75 9.45139 29.75 10.625C29.75 11.7986 30.7014 12.75 31.875 12.75Z" fill="#838A98" stroke="#838A98" stroke-width="3" stroke-linecap="round" stroke-linejoin="round"/>
<path d="M31.875 42.5C33.0486 42.5 34 41.5486 34 40.375C34 39.2014 33.0486 38.25 31.875 38.25C30.7014 38.25 29.75 39.2014 29.75 40.375C29.75 41.5486 30.7014 42.5 31.875 42.5Z" fill="#838A98" stroke="#838A98" stroke-width="3" stroke-linecap="round" stroke-linejoin="round"/>
</svg>
