<svg width="62" height="62" viewBox="0 0 62 62" fill="none" xmlns="http://www.w3.org/2000/svg">
<path d="M31 20.6665C43.8406 20.6665 54.25 17.1967 54.25 12.9165C54.25 8.6363 43.8406 5.1665 31 5.1665C18.1594 5.1665 7.75 8.6363 7.75 12.9165C7.75 17.1967 18.1594 20.6665 31 20.6665Z" stroke="#838A98" stroke-width="3" stroke-linecap="round" stroke-linejoin="round"/>
<path d="M7.75 12.9165V49.0832C7.75 51.1386 10.1995 53.1098 14.5598 54.5633C18.92 56.0167 24.8337 56.8332 31 56.8332C37.1663 56.8332 43.08 56.0167 47.4402 54.5633C51.8004 53.1098 54.25 51.1386 54.25 49.0832V12.9165" stroke="#838A98" stroke-width="3" stroke-linecap="round" stroke-linejoin="round"/>
<path d="M7.75 31C7.75 33.0554 10.1995 35.0267 14.5598 36.4801C18.92 37.9335 24.8337 38.75 31 38.75C37.1663 38.75 43.08 37.9335 47.4402 36.4801C51.8004 35.0267 54.25 33.0554 54.25 31" stroke="#838A98" stroke-width="3" stroke-linecap="round" stroke-linejoin="round"/>
</svg>
