<svg width="60" height="60" viewBox="0 0 60 60" fill="none" xmlns="http://www.w3.org/2000/svg">
<path d="M7.21031 27.5412C7.21031 27.5412 27.6659 19.1718 34.7603 16.2249C37.4797 15.0462 46.7025 11.274 46.7025 11.274C46.7025 11.274 50.9591 9.62399 50.6044 13.6315C50.4859 15.2818 49.54 21.0577 48.5941 27.3052C47.1753 36.1462 45.6381 45.8118 45.6381 45.8118C45.6381 45.8118 45.4019 48.5231 43.3919 48.9946C41.3816 49.4662 38.0709 47.3443 37.4797 46.8727C37.0069 46.519 28.6119 41.2146 25.5378 38.6215C24.71 37.9143 23.7641 36.4996 25.6559 34.8493C29.9125 30.9596 34.9969 26.1265 38.0709 23.0618C39.4897 21.6471 40.9087 18.3465 34.9969 22.3543C26.6019 28.1302 18.325 33.5527 18.325 33.5527C18.325 33.5527 16.4334 34.7315 12.8862 33.6706C9.33906 32.6096 5.20062 31.1952 5.20062 31.1952C5.20062 31.1952 2.36312 29.4268 7.21093 27.5412H7.21031Z" stroke="#838A98" stroke-width="3"/>
</svg>
