<svg width="60" height="60" viewBox="0 0 60 60" fill="none" xmlns="http://www.w3.org/2000/svg">
<g clip-path="url(#clip0_60_358)">
<path d="M41.0502 27.5344C41.6582 26.9265 41.9999 26.102 42 25.2422C42.0001 24.3824 41.6587 23.5578 41.0508 22.9498C40.4429 22.3418 39.6184 22.0001 38.7587 22C37.8989 21.9999 37.0743 22.3413 36.4663 22.9492L21.1182 38.3009C20.8512 38.5671 20.6538 38.8949 20.5432 39.2554L19.0241 44.2603C18.9944 44.3598 18.9921 44.4654 19.0176 44.5661C19.043 44.6667 19.0953 44.7586 19.1687 44.8319C19.2422 44.9053 19.3341 44.9573 19.4348 44.9826C19.5355 45.008 19.6411 45.0055 19.7405 44.9757L24.7465 43.4576C25.1067 43.3481 25.4344 43.1518 25.701 42.8861L41.0502 27.5344Z" stroke="#838A98" stroke-width="3" stroke-linecap="round" stroke-linejoin="round"/>
<path d="M20.1429 7.5H10.5C9.62857 7.5 8.79284 7.82192 8.17665 8.39495C7.56046 8.96798 7.21429 9.74517 7.21429 10.5556V54.5C7.21429 55.3104 7.56046 56.0876 8.17665 56.6606C8.79284 57.2336 9.62857 57.5556 10.5 57.5556C25.8978 57.5556 34.1022 57.5556 49.5 57.5556C50.3714 57.5556 51.2072 57.2336 51.8233 56.6606C52.4395 56.0876 52.7857 55.3104 52.7857 54.5V10.5556C52.7857 9.74517 52.4395 8.96798 51.8233 8.39495C51.2072 7.82192 50.3714 7.5 49.5 7.5C48.6286 7.5 39.8571 7.5 39.8571 7.5M20.1429 2H39.8571V12.5H20.1429V2Z" stroke="#838A98" stroke-width="3" stroke-linejoin="round"/>
</g>
<defs>
<clipPath id="clip0_60_358">
<rect width="60" height="60" fill="white"/>
</clipPath>
</defs>
</svg>
