<svg width="47" height="47" viewBox="0 0 47 47" fill="none" xmlns="http://www.w3.org/2000/svg">
<path d="M25.4583 13.7082L17.0375 5.28736C16.153 4.4072 14.9561 3.91309 13.7083 3.91309C12.4605 3.91309 11.2636 4.4072 10.3791 5.28736L5.28747 10.379C4.40731 11.2635 3.9132 12.4604 3.9132 13.7082C3.9132 14.9559 4.40731 16.1529 5.28747 17.0374L13.7083 25.4582" stroke="#838A98" stroke-width="3" stroke-linecap="round" stroke-linejoin="round"/>
<path d="M15.6667 11.7502L19.5833 7.8335" stroke="#838A98" stroke-width="3" stroke-linecap="round" stroke-linejoin="round"/>
<path d="M35.25 31.3332L39.1667 27.4165" stroke="#838A98" stroke-width="3" stroke-linecap="round" stroke-linejoin="round"/>
<path d="M33.2917 21.5415L41.7125 29.9623C43.5533 31.8032 43.5533 34.7798 41.7125 36.6207L36.6208 41.7123C34.78 43.5532 31.8033 43.5532 29.9625 41.7123L21.5417 33.2915" stroke="#838A98" stroke-width="3" stroke-linecap="round" stroke-linejoin="round"/>
<path d="M41.4657 13.3403C42.5011 12.3051 43.0829 10.9011 43.0831 9.43702C43.0833 7.97294 42.5019 6.56875 41.4667 5.53337C40.4316 4.49798 39.0276 3.9162 37.5635 3.91602C36.0994 3.91583 34.6952 4.49726 33.6598 5.53239L7.52391 31.6742C7.06922 32.1275 6.73296 32.6857 6.54474 33.2996L3.95778 41.8223C3.90717 41.9916 3.90335 42.1715 3.94672 42.3429C3.99009 42.5142 4.07904 42.6707 4.20413 42.7956C4.32922 42.9204 4.48579 43.0091 4.65722 43.0522C4.82865 43.0953 5.00854 43.0912 5.17782 43.0403L13.7025 40.4553C14.3157 40.2688 14.8739 39.9346 15.3279 39.4821L41.4657 13.3403Z" stroke="#838A98" stroke-width="3" stroke-linecap="round" stroke-linejoin="round"/>
<path d="M29.375 9.7915L37.2083 17.6248" stroke="#838A98" stroke-width="3" stroke-linecap="round" stroke-linejoin="round"/>
</svg>
